<svg width="14" height="14" viewBox="0 0 14 14" fill="none" xmlns="http://www.w3.org/2000/svg">
<path d="M9.15852 10.7734V4C9.15852 3.44772 8.7108 3 8.15852 3H1.70215C1.14986 3 0.702148 3.44772 0.702148 4V10.6256C0.702148 11.1779 1.14986 11.6256 1.70215 11.6256H2.48926" stroke="#DDB3FF" stroke-linecap="round" stroke-linejoin="round"/>
<path d="M13.2979 7.73242H9.1604" stroke="#DDB3FF" stroke-linecap="round" stroke-linejoin="round"/>
<path d="M11.6377 11.6257H12.3196C12.8747 11.6257 13.3236 11.1736 13.3195 10.6184L13.2964 7.43811L11.9039 4.58726C11.7362 4.24389 11.3875 4.02612 11.0054 4.02612H9.14551" stroke="#DDB3FF" stroke-linecap="round" stroke-linejoin="round"/>
<path d="M3.89801 13.052C4.669 13.052 5.29401 12.427 5.29401 11.656C5.29401 10.885 4.669 10.26 3.89801 10.26C3.12702 10.26 2.50201 10.885 2.50201 11.656C2.50201 12.427 3.12702 13.052 3.89801 13.052Z" stroke="#DDB3FF" stroke-linecap="round" stroke-linejoin="round"/>
<path d="M10.235 13.052C11.006 13.052 11.631 12.427 11.631 11.656C11.631 10.885 11.006 10.26 10.235 10.26C9.464 10.26 8.83899 10.885 8.83899 11.656C8.83899 12.427 9.464 13.052 10.235 13.052Z" stroke="#DDB3FF" stroke-linecap="round" stroke-linejoin="round"/>
<path d="M3.43134 7H6.42932" stroke="#DDB3FF" stroke-linecap="round" stroke-linejoin="round"/>
<path d="M4.93042 5.50098V8.49896" stroke="#DDB3FF" stroke-linecap="round" stroke-linejoin="round"/>
<path d="M8.83887 11.6255H5.29395" stroke="#DDB3FF" stroke-linecap="round" stroke-linejoin="round"/>
</svg>
