<svg width="14" height="14" viewBox="0 0 14 14" fill="none" xmlns="http://www.w3.org/2000/svg">
<g clip-path="url(#clip0_1606_200)">
<path fill-rule="evenodd" clip-rule="evenodd" d="M3.65601 0.469027C4.03951 0.15342 4.52458 0 4.99895 0H9.00108C9.47544 0 9.96051 0.15342 10.344 0.469027C10.733 0.789168 11.0016 1.26994 11.0016 1.82341V3.47022C11.0016 4.0225 10.5539 4.47022 10.0016 4.47022C9.44932 4.47022 9.00161 4.0225 9.00161 3.47022V2C9.00143 2 9.00178 2 9.00161 2H4.99895C4.99877 2 4.99913 2 4.99895 2L4.99841 3.47022C4.99841 4.0225 4.5507 4.47022 3.99841 4.47022C3.44613 4.47022 2.99841 4.0225 2.99841 3.47022V1.82341C2.99841 1.26994 3.26701 0.789168 3.65601 0.469027Z" fill="#BB6DF9"/>
<path fill-rule="evenodd" clip-rule="evenodd" d="M1.5 3.36584C0.690789 3.36584 0 4.00087 0 4.82628V12.5098C0 13.3352 0.690789 13.9702 1.5 13.9702H12.5C13.3092 13.9702 14 13.3352 14 12.5098V4.82628C14 4.00087 13.3092 3.36584 12.5 3.36584H1.5Z" fill="#DDB3FF"/>
<path fill-rule="evenodd" clip-rule="evenodd" d="M7.625 6.66797C7.625 6.32279 7.34518 6.04297 7 6.04297C6.65482 6.04297 6.375 6.32279 6.375 6.66797V8.04297H5C4.65482 8.04297 4.375 8.32279 4.375 8.66797C4.375 9.01315 4.65482 9.29297 5 9.29297H6.375V10.6679C6.375 11.0131 6.65482 11.2929 7 11.2929C7.34518 11.2929 7.625 11.0131 7.625 10.6679V9.29297H9C9.34518 9.29297 9.625 9.01315 9.625 8.66797C9.625 8.32279 9.34518 8.04297 9 8.04297H7.625V6.66797Z" fill="#BB6DF9"/>
</g>
<defs>
<clipPath id="clip0_1606_200">
<rect width="14" height="14" fill="white"/>
</clipPath>
</defs>
</svg>
