<svg width="14" height="14" viewBox="0 0 14 14" fill="none" xmlns="http://www.w3.org/2000/svg">
<path d="M1.5 3.5C0.671573 3.5 0 4.17157 0 5V12.5C0 13.3284 0.671573 14 1.5 14H12.5C13.3284 14 14 13.3284 14 12.5V5C14 4.17157 13.3284 3.5 12.5 3.5H1.5Z" fill="#DDB3FF"/>
<path fill-rule="evenodd" clip-rule="evenodd" d="M7.84877 6.61952C8.11831 6.83515 8.16201 7.22846 7.94638 7.49799L6.9254 8.77423H8.37501C8.6055 8.77423 8.81729 8.90109 8.92605 9.10431C9.03481 9.30754 9.02289 9.55413 8.89504 9.74591L7.0617 12.4959C6.87023 12.7831 6.48219 12.8607 6.19498 12.6693C5.90778 12.4778 5.83017 12.0898 6.02164 11.8026L7.20718 10.0242H5.62501C5.38475 10.0242 5.16577 9.88651 5.06169 9.66997C4.95762 9.45343 4.98688 9.1964 5.13696 9.00879L6.9703 6.71713C7.18593 6.44759 7.57924 6.40389 7.84877 6.61952Z" fill="#BB6DF9"/>
<path fill-rule="evenodd" clip-rule="evenodd" d="M3.5 1C4.05228 1 4.5 1.44771 4.5 2V3H9.50009V2C9.50009 1.44771 9.94781 1 10.5001 1C11.0524 1 11.5001 1.44771 11.5001 2V3H12.5C13.3284 3 14 3.67157 14 4.5V5.5H0V4.5C0 3.67157 0.671573 3 1.5 3H2.5V2C2.5 1.44771 2.94772 1 3.5 1Z" fill="#BB6DF9"/>
</svg>
