<svg width="14" height="14" viewBox="0 0 14 14" fill="none" xmlns="http://www.w3.org/2000/svg">
<path d="M1.25 2.5C1.25 1.67157 1.92157 1 2.75 1H11.25C12.0784 1 12.75 1.67157 12.75 2.5V12.5C12.75 13.3284 12.0784 14 11.25 14H2.75C1.92157 14 1.25 13.3284 1.25 12.5V2.5Z" fill="#DDB3FF"/>
<path d="M4.5 1C4.5 0.447716 4.94772 0 5.5 0H8.5C9.05229 0 9.5 0.447715 9.5 1V1.5C9.5 2.05229 9.05229 2.5 8.5 2.5H5.5C4.94772 2.5 4.5 2.05229 4.5 1.5V1Z" fill="#BB6DF9"/>
<path d="M6.36253 5.06543C6.14586 5.06543 5.97021 5.24108 5.97021 5.45775V7.01801H4.4099C4.19323 7.01801 4.01758 7.19366 4.01758 7.41033V8.68537C4.01758 8.90204 4.19323 9.07769 4.4099 9.07769H5.97016V10.638C5.97016 10.8546 6.14581 11.0303 6.36248 11.0303H7.63752C7.85419 11.0303 8.02984 10.8546 8.02984 10.638L8.02989 9.07769H9.59015C9.80683 9.07769 9.98247 8.90204 9.98247 8.68537V7.41033C9.98247 7.19366 9.80683 7.01801 9.59015 7.01801H8.02989V5.45775C8.02989 5.24108 7.85424 5.06543 7.63757 5.06543H6.36253Z" fill="#BB6DF9"/>
</svg>
