<svg width="14" height="14" viewBox="0 0 14 14" fill="none" xmlns="http://www.w3.org/2000/svg">
<path d="M0 3C0 1.34314 1.34315 0 3.00001 0H11.0001C12.6569 0 14 1.34314 14 3V11C14 12.6568 12.6569 14 11.0001 14H3.00001C1.34315 14 0 12.6568 0 11V3Z" fill="#DDB3FF"/>
<path d="M8.88864 9.03506V14H6.39991V9.03506H5.68884C5.59891 9.03645 5.50959 9.02096 5.42607 8.98946C5.34256 8.95798 5.26652 8.91114 5.20242 8.85166C5.1383 8.79219 5.08738 8.72129 5.05263 8.64308C5.01788 8.56486 4.99998 8.48091 5 8.39612V7.58957C4.99998 7.50478 5.01788 7.42082 5.05263 7.34261C5.08738 7.2644 5.1383 7.1935 5.20242 7.13402C5.26652 7.07455 5.34256 7.02771 5.42607 6.99623C5.50959 6.96473 5.59891 6.94924 5.68884 6.95063H6.39991V5.7251C6.35462 5.37598 6.39025 5.02174 6.50435 4.68687C6.61846 4.352 6.80831 4.04447 7.06078 3.78553C7.31326 3.52658 7.62235 3.3224 7.96671 3.18706C8.31106 3.05174 8.68248 2.9885 9.05529 3.00172H10.333C10.4234 3.00442 10.5125 3.02391 10.595 3.05907C10.6774 3.09423 10.7517 3.14438 10.8137 3.20664C10.8756 3.2689 10.9239 3.34205 10.9558 3.42192C10.9877 3.50178 11.0026 3.58679 10.9996 3.67209V4.4472C11.0012 4.53124 10.9842 4.61465 10.9497 4.69218C10.9153 4.76971 10.8642 4.83966 10.7996 4.89761C10.7395 4.9601 10.6656 5.00938 10.5829 5.04196C10.5004 5.07454 10.4113 5.08962 10.3219 5.08615H9.7775C9.35523 5.08615 8.93307 5.08615 8.93307 5.96602V6.95063H9.67743C9.76646 6.95063 9.85457 6.96715 9.93679 6.99926C10.019 7.03137 10.0938 7.07843 10.1567 7.13776C10.2197 7.1971 10.2695 7.26753 10.3037 7.34506C10.3377 7.42258 10.3552 7.50566 10.3552 7.58957V8.39612C10.3552 8.56558 10.2838 8.7281 10.1567 8.84792C10.0296 8.96774 9.85725 9.03506 9.67743 9.03506H8.88864Z" fill="#BB6DF9" fill-opacity="0.976471"/>
</svg>
