<svg width="14" height="14" viewBox="0 0 14 14" fill="none" xmlns="http://www.w3.org/2000/svg">
<path fill-rule="evenodd" clip-rule="evenodd" d="M4.05204 1.09635C5.01944 1.16775 6.02674 1.64474 6.9922 2.60659C7.9586 1.64755 8.96826 1.17345 9.93786 1.1039C11.0343 1.02524 12.0029 1.47014 12.7017 2.17178C14.0759 3.55175 14.4952 6.04664 12.7612 7.75717L12.7496 7.76825L7.3311 12.7803C7.13946 12.9576 6.8437 12.9576 6.65206 12.7803L1.23361 7.76825C1.22856 7.76359 1.22362 7.75882 1.21877 7.75395C-0.49014 6.0372 -0.0725672 3.54236 1.296 2.16236C1.99221 1.46033 2.95765 1.01558 4.05204 1.09635Z" fill="#DDB3FF"/>
<path fill-rule="evenodd" clip-rule="evenodd" d="M6.10099 4.15999C6.34182 4.16909 6.55595 4.31584 6.65135 4.53715L7.80512 7.2139L8.49829 6.35952C8.61697 6.21325 8.79528 6.1283 8.98364 6.1283H10.4836C10.8288 6.1283 11.1086 6.40812 11.1086 6.7533C11.1086 7.09848 10.8288 7.3783 10.4836 7.3783H9.2814L8.12524 8.80332C7.98747 8.97314 7.77096 9.0586 7.55434 9.02867C7.33772 8.99873 7.1525 8.85776 7.06594 8.65694L6.02253 6.23624L5.59979 7.0433C5.49191 7.24925 5.27863 7.3783 5.04614 7.3783H3.51489C3.16971 7.3783 2.88989 7.09848 2.88989 6.7533C2.88989 6.40812 3.16971 6.1283 3.51489 6.1283H4.66797L5.52375 4.49454C5.63557 4.28106 5.86017 4.15089 6.10099 4.15999Z" fill="#BB6DF9"/>
</svg>
