<svg width="14" height="14" viewBox="0 0 14 14" fill="none" xmlns="http://www.w3.org/2000/svg">
<g clip-path="url(#clip0_1606_177)">
<path fill-rule="evenodd" clip-rule="evenodd" d="M7.61465 3.49691C7.47658 3.25776 7.17079 3.17583 6.93164 3.3139C6.69249 3.45197 6.61056 3.75776 6.74863 3.99691L6.76708 4.02887L0.353513 10.8892C0.203224 11.0499 0.175712 11.29 0.285745 11.4806L0.894817 12.5356C1.00485 12.7261 1.22656 12.8224 1.44092 12.7726L3.14899 12.376L3.48709 12.9616L3.48824 12.9636C3.74503 13.4037 4.16613 13.7238 4.65892 13.8534C5.1517 13.983 5.67579 13.9116 6.1159 13.6548C6.55601 13.398 6.87609 12.9769 7.00572 12.4841C7.09294 12.1525 7.08913 11.8068 6.99908 11.482L10.5889 10.6484L10.6063 10.6785C10.7443 10.9177 11.0501 10.9996 11.2893 10.8615C11.5284 10.7235 11.6104 10.4177 11.4723 10.1785L11.2837 9.8518C11.2752 9.83506 11.2659 9.81892 11.2557 9.80343L7.83229 3.87386C7.82395 3.85734 7.81464 3.84119 7.80437 3.82551L7.61465 3.49691ZM6.02317 11.7086L4.16719 12.1396L4.35248 12.4605C4.47566 12.6711 4.67735 12.8242 4.91332 12.8863C5.14961 12.9484 5.40091 12.9142 5.61195 12.7911C5.82298 12.6679 5.97646 12.466 6.03862 12.2297C6.0841 12.0568 6.07796 11.8759 6.02317 11.7086Z" fill="#DDB3FF"/>
<path fill-rule="evenodd" clip-rule="evenodd" d="M7.18122 0C7.59543 0 7.93122 0.335786 7.93122 0.75V2.00349C7.93122 2.4177 7.59543 2.75349 7.18122 2.75349C6.76701 2.75349 6.43122 2.4177 6.43122 2.00349V0.75C6.43122 0.335786 6.76701 0 7.18122 0ZM13.9874 6.80606C13.9874 7.22027 13.6516 7.55606 13.2374 7.55606H11.9839C11.5697 7.55606 11.2339 7.22027 11.2339 6.80606C11.2339 6.39185 11.5697 6.05606 11.9839 6.05606H13.2374C13.6516 6.05606 13.9874 6.39185 13.9874 6.80606ZM2.37946 7.55606C2.79368 7.55606 3.12946 7.22027 3.12946 6.80606C3.12946 6.39185 2.79368 6.05606 2.37946 6.05606H1.12598C0.711763 6.05606 0.375977 6.39185 0.375977 6.80606C0.375977 7.22027 0.711763 7.55606 1.12598 7.55606H2.37946ZM4.31507 3.94043C4.02217 4.23332 3.5473 4.23332 3.25441 3.94043L2.36806 3.05408C2.07516 2.76118 2.07516 2.28631 2.36806 1.99342C2.66095 1.70052 3.13582 1.70052 3.42872 1.99342L4.31507 2.87977C4.60796 3.17266 4.60796 3.64753 4.31507 3.94043ZM11.994 3.05406C12.2869 2.76116 12.2869 2.28629 11.994 1.9934C11.7011 1.7005 11.2263 1.7005 10.9334 1.9934L10.047 2.87975C9.75412 3.17264 9.75412 3.64751 10.047 3.94041C10.3399 4.2333 10.8148 4.2333 11.1077 3.94041L11.994 3.05406Z" fill="#BB6DF9"/>
</g>
<defs>
<clipPath id="clip0_1606_177">
<rect width="14" height="14" fill="white"/>
</clipPath>
</defs>
</svg>
