<svg width="14" height="14" viewBox="0 0 14 14" fill="none" xmlns="http://www.w3.org/2000/svg">
<g clip-path="url(#clip0_1617_17)">
<path d="M0 3C0 1.34314 1.34315 0 3.00001 0H11.0001C12.6569 0 14 1.34314 14 3V11C14 12.6568 12.6569 14 11.0001 14H3.00001C1.34315 14 0 12.6568 0 11V3Z" fill="#DDB3FF"/>
<path fill-rule="evenodd" clip-rule="evenodd" d="M10.5511 4.5C10.9653 4.5 11.3011 4.16421 11.3011 3.75C11.3011 3.33578 10.9653 3 10.5511 3C10.1369 3 9.80115 3.33578 9.80115 3.75C9.80115 4.16421 10.1369 4.5 10.5511 4.5ZM4 7.21787C4 5.5168 5.37899 4.13781 7.08006 4.13781C8.78113 4.13781 10.1601 5.5168 10.1601 7.21787C10.1601 8.91894 8.78113 10.2979 7.08006 10.2979C5.37899 10.2979 4 8.91894 4 7.21787Z" fill="#BB6DF9"/>
</g>
<defs>
<clipPath id="clip0_1617_17">
<rect width="14" height="14" fill="white"/>
</clipPath>
</defs>
</svg>
