<?xml version="1.0" encoding="UTF-8"?> <svg xmlns="http://www.w3.org/2000/svg" viewBox="0 0 243.14 306.07"> <defs> <style>.cls-1{fill:#efeee8;}.cls-2{fill:#fddfc0;}.cls-3{fill:#c6e2c0;}.cls-4{fill:#f58e7f;}.cls-5{fill:#fff;}.cls-6{fill:#f69e8e;}.cls-7{fill:#fbc6a6;}.cls-8{fill:#a2d6bf;}.cls-9{fill:#f27769;}.cls-10{fill:#fff0dc;}.cls-11{fill:#604c44;}</style> </defs> <title>Ребенок 4</title> <g id="Слой_2" data-name="Слой 2"> <g id="Object"> <ellipse class="cls-1" cx="123.68" cy="277.43" rx="111.38" ry="28.65"></ellipse> <path class="cls-2" d="M241,154.5c-.58-1.3-5.3-1.36-8.48-.89a.92.92,0,0,1-.88-.38.9.9,0,0,1-.05-1c1-1.81,3-7,.66-9-1.78-1.53-5.44,1.79-6.58,3.07a.91.91,0,0,1-1.55-.33c-.66-2.05-2.27-5.6-3.83-6.38a1.06,1.06,0,0,0-.86-.08c-2.09.73-2.72,2.4-3.51,4.51a12.09,12.09,0,0,1-3.07,5.18c-.46.41-1,.89-1.51,1.44-3.74,3.67-10,9.8-27.16,15.66-11.72,12.29-32.82,18.16-64.35,18.16-33,0-53.54-6.74-64.61-21.89-14.42-5.88-19.94-11.58-23.32-15.08-.54-.56-1-1-1.46-1.48a12.14,12.14,0,0,1-2.93-5.26c-.73-2.13-1.31-3.82-3.38-4.61a1.09,1.09,0,0,0-.86.06c-1.58.73-3.3,4.24-4,6.27a.91.91,0,0,1-1.56.29c-1.11-1.31-4.67-4.72-6.48-3.26-2.4,1.95-.52,7.15.41,9a.93.93,0,0,1-.09,1,.9.9,0,0,1-.89.35c-3.16-.55-7.88-.63-8.5.66-1.95,4.08,5.72,7.91,5.79,7.95a.91.91,0,0,1-.39,1.73s-2.22,0-3.15,1.31a3.28,3.28,0,0,0-.19,2.94c1,3.32,6,2.89,9.63,2.57a17.56,17.56,0,0,1,3.43-.12c1,.14,2.77,1.59,7.92,6.05,9.48,8.22,27.12,23.51,42.28,27.17a.88.88,0,0,1,.58.45.89.89,0,0,1,.07.73A121.5,121.5,0,0,0,63,230.87a25.94,25.94,0,0,1,6,2.88c6.61,4.22,10.93,11.17,13.67,17.7a278,278,0,0,0,35.61,2.19c14.22,0,28.82-1,40-2,2.73-6.58,7.07-13.63,13.77-17.9a23.8,23.8,0,0,1,8.28-3.46,131.48,131.48,0,0,0-6.55-27.06,1,1,0,0,1,.05-.77,1,1,0,0,1,.62-.46c15.25-3.23,33.25-17.89,42.92-25.76,5.26-4.28,7-5.68,8.07-5.78a17.91,17.91,0,0,1,3.43.21c3.63.41,8.6,1,9.69-2.3a3.3,3.3,0,0,0-.1-3c-.9-1.28-3.09-1.38-3.11-1.38a.92.92,0,0,1-.86-.74.9.9,0,0,1,.51-1C235.08,162.24,242.84,158.62,241,154.5Zm-119,91a.92.92,0,1,1-1.83,0V242a.92.92,0,0,1,1.83,0Z"></path> <path class="cls-3" d="M125.58,292.53a11.64,11.64,0,0,1,.08-8.22c2.23-6.52,7.58-8,12.3-9.24,3.29-.89,6.4-1.74,8.17-4.15a28.88,28.88,0,0,1,8.61-7.72,64.69,64.69,0,0,1,2.79-9.64c-11.09,1-25.35,1.91-39.24,1.91a283,283,0,0,1-34.84-2.08,64.62,64.62,0,0,1,2.84,9.81,28.43,28.43,0,0,1,8.63,7.72c1.77,2.41,4.88,3.26,8.17,4.15,4.72,1.27,10.07,2.72,12.31,9.24a11.65,11.65,0,0,1,0,8.29A84.75,84.75,0,0,0,125.58,292.53Z"></path> <path class="cls-2" d="M58.49,278.31A4.21,4.21,0,0,1,61,276.09l-.06,0a6.48,6.48,0,0,1-1-6.42,4,4,0,0,1,2.86-2.37,7,7,0,0,1,.34-5.44,4.35,4.35,0,0,1,3.9-2.34c-.69-3,0-5.77,2-7.21A6.68,6.68,0,0,1,73,250.82c4.21,0,7.78,4.36,8.35,8.28a6.85,6.85,0,0,1,0,2c.2,0,.4,0,.61,0a17.6,17.6,0,0,1,2.3.94c-1.76-7.41-6.34-20.51-16.22-26.81a19.75,19.75,0,0,0-10.59-3.5c-8.22,0-13.55,6.93-15,11.31-2,6.07,1,18.65,9.37,28.39A64,64,0,0,0,58.49,278.31Z"></path> <path class="cls-2" d="M32.44,106.22c-3.27,3.35-4.85,8.33-4.69,14.81.36,14.91,10.45,19.19,18.72,20.2a148.33,148.33,0,0,1-1.65-40C40.79,101.47,35.93,102.63,32.44,106.22Z"></path> <path class="cls-2" d="M210.28,106.22c-3.8-3.89-9.2-4.94-13.4-5.08,1.23,16.24-.6,31.3-1.78,40.22,8.44-.75,19.48-4.72,19.87-20.33C215.12,114.55,213.55,109.57,210.28,106.22Z"></path> <path class="cls-2" d="M119.84,182.71c46.93,0,69.52-12.36,73.24-40.07,2.28-16.93,8.31-61.9-15.53-89.15-7.72-8.82-18-15.09-30.62-18.81-5.47,9.89-15.45,11.91-26.08,13.21h-.11a.92.92,0,0,1-.91-.8.91.91,0,0,1,.8-1c10-1.22,19.37-3.09,24.49-11.91a111.4,111.4,0,0,0-29.05-3.51c-22.53,0-40,7.41-51.91,22-21.52,26.4-19.67,69.92-15.69,89.24C54.35,170.52,75.7,182.71,119.84,182.71Zm34.45-81.56a7.24,7.24,0,1,1-7.12,7.24A7.18,7.18,0,0,1,154.29,101.15Zm-51.69,40.2c.81-5.4,11.62-6,16.23-6,8.84,0,19.93,1.93,23.06,5.51,1.82,2.08,2,5.25.57,8.68-2.67,6.26-10.42,12.82-20.07,13.27l-1,0a17.94,17.94,0,0,1-14.06-6.31A19.83,19.83,0,0,1,102.6,141.35Zm-11.46-40.2A7.24,7.24,0,1,1,84,108.39,7.18,7.18,0,0,1,91.14,101.15Z"></path> <path class="cls-4" d="M122.31,161c8.8-.4,16.08-6.56,18.47-12.15.69-1.63,1.57-4.66-.27-6.77-2.35-2.69-12.08-4.89-21.68-4.89-8.36,0-14,1.74-14.43,4.43a18,18,0,0,0,4.28,13.73A16.44,16.44,0,0,0,122.31,161Z"></path> <path class="cls-5" d="M89.2,108a2.4,2.4,0,1,0-2.35-2.39A2.38,2.38,0,0,0,89.2,108Z"></path> <path class="cls-5" d="M152.36,108a2.4,2.4,0,1,0-2.36-2.39A2.37,2.37,0,0,0,152.36,108Z"></path> <path class="cls-2" d="M67.52,282.66a21.06,21.06,0,0,1-.1-3.29c0-.05,0-.1-.07-.15a3.86,3.86,0,0,0-1.48-1.3c-.14,0-.27,0-.4,0a6.42,6.42,0,0,1-2.41-.46c-.18,0-.35,0-.54.05-1.46.25-2.31.93-2.52,2a4.55,4.55,0,0,0,1.9,4.22,4,4,0,0,0,2.12.57A4.25,4.25,0,0,0,67.52,282.66Z"></path> <path class="cls-2" d="M68.4,271.24A6.74,6.74,0,0,1,63.68,269a2.33,2.33,0,0,0-2.16,1.39,4.59,4.59,0,0,0,.72,4.44,4.42,4.42,0,0,0,3.23,1.33,3.89,3.89,0,0,0,2.49-.84,27.21,27.21,0,0,1,.83-3.1,5.32,5.32,0,0,0-.16-.57C68.57,271.48,68.47,271.37,68.4,271.24Z"></path> <path class="cls-2" d="M67.56,261.33a3.62,3.62,0,0,0-.55-.05,2.52,2.52,0,0,0-2.36,1.4,5.05,5.05,0,0,0,.1,4.68,4.94,4.94,0,0,0,4.08,2.08,4.26,4.26,0,0,0,1.15-.16,19.77,19.77,0,0,1,2.17-3.55A8.06,8.06,0,0,1,67.56,261.33Z"></path> <path class="cls-2" d="M79.51,259.36c-.46-3.17-3.35-6.71-6.54-6.71a4.92,4.92,0,0,0-3,1.07c-1.47,1.1-1.91,3.61-1.08,6.1a6.36,6.36,0,0,0,4.57,4.4,10.29,10.29,0,0,1,6-3.06A5.23,5.23,0,0,0,79.51,259.36Z"></path> <path class="cls-2" d="M113.67,284.9c-1.92-5.6-6.36-6.8-11-8.07-3.45-.93-7-1.9-9.17-4.83a27,27,0,0,0-11.92-9.06c-.18,0-.53,0-.86,0a9.12,9.12,0,0,0-6.94,3.75,22.91,22.91,0,0,0-4.17,17.44c1.76,8.21,5.21,9.66,22,13.39a39.57,39.57,0,0,0,8.45,1c6,0,10.58-1.75,12.84-4.93C114.53,291.22,114.81,288.23,113.67,284.9Z"></path> <path class="cls-2" d="M183.62,231.79a19.75,19.75,0,0,0-10.59,3.5c-9.85,6.29-14.44,19.33-16.19,26.79a19,19,0,0,1,2.11-.88c.29-.05.54-.08.77-.1a7.45,7.45,0,0,1,0-2c.57-3.92,4.14-8.28,8.36-8.28a6.65,6.65,0,0,1,4.06,1.44c1.92,1.44,2.65,4.25,2,7.21a4.35,4.35,0,0,1,3.9,2.34,7,7,0,0,1,.34,5.45,3.94,3.94,0,0,1,2.85,2.36,6.46,6.46,0,0,1-1.05,6.42l0,0a4.19,4.19,0,0,1,2.45,2.22,63.07,63.07,0,0,0,6.66-6.82c8.33-9.74,11.35-22.32,9.37-28.39C197.17,238.72,191.85,231.79,183.62,231.79Z"></path> <path class="cls-2" d="M181.05,279.57c-.21-1.1-1.05-1.78-2.52-2-.19,0-.35,0-.53-.05a6.46,6.46,0,0,1-2.41.46c-.14,0-.27,0-.4,0a3.79,3.79,0,0,0-1.48,1.3l-.08.15a21.07,21.07,0,0,1-.09,3.29,4.2,4.2,0,0,0,3.49,1.7,4.11,4.11,0,0,0,2.13-.57A4.57,4.57,0,0,0,181.05,279.57Z"></path> <path class="cls-2" d="M172.65,271.24a2.88,2.88,0,0,0-.22.38,2.84,2.84,0,0,0-.16.57,27.17,27.17,0,0,1,.82,3.1,3.9,3.9,0,0,0,2.5.84,4.42,4.42,0,0,0,3.23-1.33,4.62,4.62,0,0,0,.72-4.44,2.34,2.34,0,0,0-2.16-1.39A6.76,6.76,0,0,1,172.65,271.24Z"></path> <path class="cls-2" d="M174.05,261.28a3.64,3.64,0,0,0-.56.05,8,8,0,0,1-4.59,4.4,19.22,19.22,0,0,1,2.17,3.55,4.26,4.26,0,0,0,1.15.16,4.93,4.93,0,0,0,4.08-2.08,5.05,5.05,0,0,0,.11-4.68A2.53,2.53,0,0,0,174.05,261.28Z"></path> <path class="cls-2" d="M167.56,264.22a6.33,6.33,0,0,0,4.57-4.4c.83-2.49.39-5-1.08-6.1a4.9,4.9,0,0,0-3-1.07c-3.19,0-6.09,3.54-6.55,6.71a5.43,5.43,0,0,0,0,1.79A10.52,10.52,0,0,1,167.56,264.22Z"></path> <path class="cls-2" d="M171.49,284.1a22.86,22.86,0,0,0-4.16-17.44c-1.54-1.89-4.28-4.17-8-3.69a27.4,27.4,0,0,0-11.74,9c-2.15,2.93-5.72,3.9-9.17,4.83-4.7,1.27-9.13,2.47-11,8.07-1.15,3.33-.86,6.32.81,8.66,2.27,3.18,6.83,4.93,12.84,4.93a39.49,39.49,0,0,0,8.45-1C166.29,293.76,169.73,292.31,171.49,284.1Z"></path> <circle class="cls-6" cx="159.82" cy="137.58" r="10.1"></circle> <circle class="cls-6" cx="85.55" cy="137.58" r="10.1"></circle> <path class="cls-7" d="M187.77,158.82c-11.57,7.17-25.92,10.47-39.65,12.4-13.2,1.85-26.74,2.84-39.77.07s-25.65-9.71-32.84-20.93c-5.2-8.11-7.26-17.81-8.4-27.37C64.76,103.37,66,82.83,74.43,65,82,49,95.86,35.56,112.65,30.73c-20.88.72-37.18,8.09-48.49,22-21.52,26.4-19.67,69.92-15.69,89.24,5.88,28.58,27.23,40.77,71.37,40.77C156.38,182.71,178.15,175.22,187.77,158.82Z"></path> <path class="cls-7" d="M67.64,202.91c1.3-3.29,2.58-7,1.1-10.23-1.41-3-4.81-4.51-7.87-5.89a97.62,97.62,0,0,1-28-19.14c-5.91-5.8-12-12.8-20.21-13.46-2.64-.21-5.41.26-7.87-.74a5.27,5.27,0,0,1-2.69-2.73c-1.63,4,5.78,7.72,5.85,7.76a.91.91,0,0,1-.39,1.73s-2.22,0-3.15,1.31a3.28,3.28,0,0,0-.19,2.94c1,3.32,6,2.89,9.63,2.57a17.56,17.56,0,0,1,3.43-.12c1,.14,2.77,1.59,7.92,6.05,9.48,8.22,27.12,23.51,42.28,27.17a.88.88,0,0,1,.58.45.89.89,0,0,1,.07.73S67.93,201.92,67.64,202.91Z"></path> <path class="cls-7" d="M225.44,170.46a17.91,17.91,0,0,1,3.43.21c3.63.41,8.6,1,9.69-2.3a3.3,3.3,0,0,0-.1-3c-.9-1.28-3.09-1.38-3.11-1.38a.92.92,0,0,1-.86-.74.9.9,0,0,1,.51-1c.08,0,7.84-3.66,6-7.78,0,0,0,0,0-.05a5.06,5.06,0,0,1-2.33,2c-2.46,1-5.23.54-7.87.75-8.25.66-14.3,7.66-20.21,13.45a97.22,97.22,0,0,1-28,19.14c-3.06,1.38-6.46,2.86-7.87,5.9a9.31,9.31,0,0,0-.23,6.28h0c15.25-3.23,33.25-17.89,42.92-25.76C222.63,172,224.42,170.56,225.44,170.46Z"></path> <path class="cls-7" d="M82.68,251.45q3.12.41,7,.8c-.88-1.92-1.61-3.94-2.53-5.84-5.27-10.89-16.92-18.17-22.85-28.28A110.9,110.9,0,0,0,63,230.87a25.94,25.94,0,0,1,6,2.88C75.62,238,79.94,244.92,82.68,251.45Z"></path> <path class="cls-7" d="M172.05,233.75a23.8,23.8,0,0,1,8.28-3.46c-.49-3.82-1.16-7.47-1.89-10.79l-5.5,4.16c-5.79,4.38-11.73,8.93-15.36,15.22-1.78,3.1-3,6.59-5.35,9.27a20.92,20.92,0,0,1-6.12,4.46c4.33-.3,8.45-.62,12.17-1C161,245.07,165.35,238,172.05,233.75Z"></path> <path class="cls-7" d="M121.62,250.5a3,3,0,0,0,2-1.72,7.24,7.24,0,0,0,.57-2.69,30.09,30.09,0,0,0,0-3.15,6.31,6.31,0,0,0-.75-3,2.48,2.48,0,0,0-2.68-1.22,2.72,2.72,0,0,0-1.41,1.14,9.67,9.67,0,0,0-1.3,4.8,8.12,8.12,0,0,0,.39,3.92A3.06,3.06,0,0,0,121.62,250.5Z"></path> <path class="cls-7" d="M169.08,277.56c-.7,2.52-1.92,5.1-4.19,6.41s-5.45,1.06-8,2.18c-2,.91-3.56,2.68-5.29,4.09a18.25,18.25,0,0,1-13.94,3.86,11.92,11.92,0,0,1-8-4.25c-1.84-2.48-2.13-6.21-.15-8.58h-.13a10.56,10.56,0,0,0-2.06,3.63c-1.15,3.33-.86,6.32.81,8.66,2.27,3.18,6.83,4.93,12.84,4.93a39.49,39.49,0,0,0,8.45-1c16.8-3.73,20.24-5.18,22-13.39a22.39,22.39,0,0,0-1.12-11.82C169.87,274,169.56,275.81,169.08,277.56Z"></path> <path class="cls-7" d="M171.25,257.31c-.39,1.57-1.14,3.26-2.66,3.8-1.8.63-3.83-.84-4.36-2.67a6.76,6.76,0,0,1,.51-4.51,9,9,0,0,0-3.2,5.43,5.43,5.43,0,0,0,0,1.79,10.52,10.52,0,0,1,6,3.07,6.33,6.33,0,0,0,4.57-4.4,6.2,6.2,0,0,0-.38-5.34A19.5,19.5,0,0,1,171.25,257.31Z"></path> <path class="cls-7" d="M171.32,264.26a7.15,7.15,0,0,1-2.42,1.47,19.22,19.22,0,0,1,2.17,3.55,4.26,4.26,0,0,0,1.15.16,4.93,4.93,0,0,0,4.08-2.08,5,5,0,0,0,.45-3.73,3.74,3.74,0,0,1-.88,2.34,2.89,2.89,0,0,1-3.43.72A2.37,2.37,0,0,1,171.32,264.26Z"></path> <path class="cls-7" d="M174.72,274.32a2.47,2.47,0,0,1-1-3.24,7.39,7.39,0,0,1-1,.16,2.88,2.88,0,0,0-.22.38,2.84,2.84,0,0,0-.16.57,27.17,27.17,0,0,1,.82,3.1,3.9,3.9,0,0,0,2.5.84,4.42,4.42,0,0,0,3.23-1.33,4.61,4.61,0,0,0,1-2.83,5.64,5.64,0,0,1-1.14,1.59A3.57,3.57,0,0,1,174.72,274.32Z"></path> <path class="cls-7" d="M178.08,282.9a2.86,2.86,0,0,1-2.48-.81c-1-1.1-.54-2.75,0-4.14h0c-.14,0-.27,0-.4,0a3.79,3.79,0,0,0-1.48,1.3l-.08.15a21.07,21.07,0,0,1-.09,3.29,4.2,4.2,0,0,0,3.49,1.7,4.11,4.11,0,0,0,2.13-.57,4.57,4.57,0,0,0,1.77-2.53A4.3,4.3,0,0,1,178.08,282.9Z"></path> <path class="cls-7" d="M169.79,251.08a36.92,36.92,0,0,1,4.85-16.74c-.53.29-1.07.6-1.61.95-9.85,6.29-14.44,19.33-16.19,26.79a19,19,0,0,1,2.11-.88c.29-.05.54-.08.77-.1a7.45,7.45,0,0,1,0-2c.57-3.92,4.14-8.28,8.36-8.28A6.15,6.15,0,0,1,169.79,251.08Z"></path> <path class="cls-7" d="M194.32,264.08a28.6,28.6,0,0,1-9.26,5.07,16.15,16.15,0,0,1-3.78.69,6.44,6.44,0,0,1-1.12,6.2l0,0a4.19,4.19,0,0,1,2.45,2.22,63.07,63.07,0,0,0,6.66-6.82A44.31,44.31,0,0,0,194.32,264.08Z"></path> <path class="cls-7" d="M91.56,297.49a39.57,39.57,0,0,0,8.45,1c6,0,10.58-1.75,12.84-4.93a8,8,0,0,0,1.48-4.43,14.1,14.1,0,0,1-5.61,2.95,18.29,18.29,0,0,1-11.55-1c-3.93-1.64-7.59-4.44-11.85-4.48a15.47,15.47,0,0,1-3.85-.09,6.59,6.59,0,0,1-2.69-1.59,16.39,16.39,0,0,1-5.14-10.95,21.65,21.65,0,0,1,1.16-8.44,14,14,0,0,0-1.07,1.17,22.91,22.91,0,0,0-4.17,17.44C71.32,292.31,74.77,293.76,91.56,297.49Z"></path> <path class="cls-7" d="M78.62,256.75a10,10,0,0,1-2.05,3.68c-1.27,1.32-3.41,2-5,1.06a5.34,5.34,0,0,1-2.1-3.84c-.24-1.4-.24-3,.8-4,.1-.09.2-.2.3-.31a6,6,0,0,0-.62.41c-1.46,1.12-1.88,3.63-1,6.11a6.36,6.36,0,0,0,4.61,4.37,10.26,10.26,0,0,1,6-3.12,5.46,5.46,0,0,0,0-1.8A8.26,8.26,0,0,0,78.62,256.75Z"></path> <path class="cls-7" d="M69.34,266.3c-1,.79-2.33.68-3.55.52a2,2,0,0,1-1-.34,1.69,1.69,0,0,1-.5-1c0-.22-.08-.44-.11-.66a4.6,4.6,0,0,0,.61,2.5,4.94,4.94,0,0,0,4.08,2.08,4.26,4.26,0,0,0,1.15-.16,19.77,19.77,0,0,1,2.17-3.55,7.29,7.29,0,0,1-1.9-1.05A3,3,0,0,1,69.34,266.3Z"></path> <path class="cls-7" d="M68.63,271.62c-.06-.14-.16-.25-.23-.38s-.2,0-.31-.05a6.87,6.87,0,0,1-1,2.34,2,2,0,0,1-.68.69,2.36,2.36,0,0,1-1.06.19,4.68,4.68,0,0,1-3-.65,3.38,3.38,0,0,1-1.1-2.43,4.66,4.66,0,0,0,1,3.47,4.42,4.42,0,0,0,3.23,1.33,3.89,3.89,0,0,0,2.49-.84,27.21,27.21,0,0,1,.83-3.1A5.32,5.32,0,0,0,68.63,271.62Z"></path> <path class="cls-7" d="M67.52,282.66a21.06,21.06,0,0,1-.1-3.29c0-.05,0-.1-.07-.15a3.86,3.86,0,0,0-1.48-1.3h-.2c0,2-.36,4.07-2.3,4.65a2.93,2.93,0,0,1-3.12-1,4.38,4.38,0,0,0,1.65,2.18,4,4,0,0,0,2.12.57A4.25,4.25,0,0,0,67.52,282.66Z"></path> <path class="cls-7" d="M61,276.09l-.06,0a6.49,6.49,0,0,1-1.12-6.2,22.92,22.92,0,0,1-4.33-1.44,31.25,31.25,0,0,1-10.91-9,44.45,44.45,0,0,0,7.3,12.06,64,64,0,0,0,6.66,6.82A4.21,4.21,0,0,1,61,276.09Z"></path> <path class="cls-7" d="M71.42,237.89A113.5,113.5,0,0,1,75,249.25c.19.71.36,1.43.52,2.15a10.46,10.46,0,0,1,5.77,7.7,6.85,6.85,0,0,1,0,2c.2,0,.4,0,.61,0a17.6,17.6,0,0,1,2.3.94C82.7,255.6,79,244.72,71.42,237.89Z"></path> <path class="cls-7" d="M202.23,129.69a12.77,12.77,0,0,1-5.83.44c-.41,4.33-.89,8.15-1.3,11.23,8.44-.75,19.48-4.72,19.87-20.33,0-.79,0-1.56,0-2.31-.34.47-.67,1-1,1.43C210.8,124.2,207.09,128.12,202.23,129.69Z"></path> <path class="cls-7" d="M35.21,128.23a25.66,25.66,0,0,1-7.13-3.58c1.8,12,10.84,15.66,18.39,16.58-.67-3.43-1.25-7.54-1.67-12.11A25.11,25.11,0,0,1,35.21,128.23Z"></path> <path class="cls-8" d="M157.53,253.56l-6.24.51c-.31.47-.61.94-.91,1.42-5.15,8-11,16.59-20.17,19.28-9.65,2.85-19.91-1.88-28.12-7.72-5-3.55-9.76-7.78-12.82-13-2.09-.21-4.06-.43-5.82-.65a64.62,64.62,0,0,1,2.84,9.81,28.43,28.43,0,0,1,8.63,7.72c1.77,2.41,4.88,3.26,8.17,4.15,4.72,1.27,10.07,2.72,12.31,9.24a11.65,11.65,0,0,1,0,8.29,84.75,84.75,0,0,0,10.13-.07,11.64,11.64,0,0,1,.08-8.22c2.23-6.52,7.58-8,12.3-9.24,3.29-.89,6.4-1.74,8.17-4.15a28.88,28.88,0,0,1,8.61-7.72A64.69,64.69,0,0,1,157.53,253.56Z"></path> <path class="cls-9" d="M118.83,137.19c-8.36,0-14,1.74-14.43,4.43a15.57,15.57,0,0,0,.15,5.08,29.18,29.18,0,0,1,13.84-4.52,25.62,25.62,0,0,1,21,9.11,15.61,15.61,0,0,0,1.35-2.44c.69-1.63,1.57-4.66-.27-6.77C138.16,139.39,128.43,137.19,118.83,137.19Z"></path> <path class="cls-10" d="M178.43,63c-1.64-5.47-7.21-10.46-11.27-14.25-3.71-3.48-8.77-8.51-14.19-8.23a.73.73,0,0,0-.2,1.43c5.26,1.52,9.65,6.22,13.42,10s6.29,8.82,10.24,12.19A1.21,1.21,0,0,0,178.43,63Z"></path> <path class="cls-10" d="M182.82,71.54a42.5,42.5,0,0,0-2.39-4c-.7-1-2.55-.41-2.09.88a41.36,41.36,0,0,0,1.7,4.14c.6,1.24,1.17,2.59,2.46,3.25a.89.89,0,0,0,1.3-.52A5.84,5.84,0,0,0,182.82,71.54Z"></path> <path class="cls-10" d="M208,156.72c-2.16.36-4,2-5.82,3.1-2,1.24-4.27,2.13-6.25,3.42-.77.5-.54,1.91.5,1.83a19.94,19.94,0,0,0,7.38-2.46c2.12-1.06,4.43-2.47,5.33-4.75C209.39,157.14,208.57,156.62,208,156.72Z"></path> <path class="cls-10" d="M172.36,205.75a.9.9,0,0,0-1.64.69c.3,1.48.87,2.91,1.26,4.37a11.61,11.61,0,0,0,1.48,3.93.76.76,0,0,0,1.38-.18C175.6,211.81,174.05,207.94,172.36,205.75Z"></path> <path class="cls-10" d="M195,240.49c-1.35-2.24-3.78-4.76-6.42-5.34a.84.84,0,0,0-.8,1.39c1.73,1.81,3.56,3.1,4.91,5.3,1.2,1.95,1.11,4.6,2.44,6.36a.91.91,0,0,0,1.55,0C198,245.83,196.23,242.57,195,240.49Z"></path> <path class="cls-10" d="M194.59,253.38a10.9,10.9,0,0,0-1.38,2.9,3.45,3.45,0,0,0-.2,2.77.71.71,0,0,0,1,.25c.91-.44,1.15-1.52,1.45-2.41a10.82,10.82,0,0,0,.58-3.13A.76.76,0,0,0,194.59,253.38Z"></path> <path class="cls-10" d="M45.45,241.64c-1.77,2-3,6.27-1.05,8.46a.71.71,0,0,0,1.1-.14,9,9,0,0,0,.53-3.35,22.24,22.24,0,0,1,1.06-4C47.35,241.68,46.11,240.87,45.45,241.64Z"></path> <path class="cls-11" d="M233.92,151.61c1-2.44,2.43-7.19-.47-9.69-2.62-2.25-6.29.53-8.08,2.19-.74-1.89-2.24-5.07-4.25-6.08a2.89,2.89,0,0,0-2.28-.17c-2.9,1-3.78,3.35-4.62,5.6a10.65,10.65,0,0,1-2.58,4.46c-.48.43-1,.93-1.56,1.49-3.41,3.34-9,8.77-23.45,14.16a41.82,41.82,0,0,0,8.21-20.36c8.25-.69,21.52-4.53,21.95-22.14.17-7-1.58-12.41-5.21-16.13-4.28-4.39-10.27-5.51-14.86-5.63-1.46-16.36-6.15-33.71-17.79-47C171,43.27,160.6,36.84,147.77,33A25,25,0,0,0,144.1,6.89c-4-4.71-9.65-7.27-15-6.84s-10.42,4.8-12,10.41A10.66,10.66,0,0,0,121,22.51a9,9,0,0,0,9.4,1,7.25,7.25,0,0,0,3.43-8.82.92.92,0,0,0-1.2-.49.91.91,0,0,0-.49,1.19,5.45,5.45,0,0,1-2.59,6.5,7.18,7.18,0,0,1-7.45-.88A8.92,8.92,0,0,1,118.84,11c1.41-4.9,5.8-8.72,10.43-9.09S139,3.82,142.72,8.08A23.43,23.43,0,0,1,146,32.51a112.91,112.91,0,0,0-29.92-3.68c-23.1,0-41,7.64-53.33,22.71-10.9,13.38-15.93,31-17.74,47.8-4.43.26-9.9,1.53-13.87,5.6-3.63,3.72-5.38,9.15-5.21,16.13.42,16.91,12.66,21.12,20.94,22a53.34,53.34,0,0,0,6.5,16.77c-12.17-5.34-17.06-10.4-20.13-13.58-.56-.58-1.06-1.09-1.52-1.53a10.66,10.66,0,0,1-2.46-4.53c-.78-2.28-1.59-4.63-4.46-5.73a2.91,2.91,0,0,0-2.29.11c-2,.95-3.62,4.09-4.41,5.95-1.75-1.7-5.34-4.58-8-2.4-3,2.41-1.68,7.19-.74,9.67-2.75-.32-7.66-.52-8.82,1.9-1.91,4,2,7.4,4.54,9.14a4.79,4.79,0,0,0-2.11,1.54A5,5,0,0,0,2.47,165C3.9,169.73,10,169.2,14,168.85a17.06,17.06,0,0,1,3-.13c.72.2,3.76,2.83,7,5.62,9.4,8.15,26.74,23.18,42.1,27.33a124.94,124.94,0,0,0-4.91,28.72,17.42,17.42,0,0,0-3.76-.43c-9.19,0-15.13,7.71-16.71,12.57-2.17,6.68.87,19.79,9.72,30.15a62.44,62.44,0,0,0,7.71,7.73,6.38,6.38,0,0,0,2.8,4.94,5.82,5.82,0,0,0,3.07.84,6.73,6.73,0,0,0,2.7-.57q.72.28,1.47.54c2.15,7.71,6.88,9.53,23,13.11a41.24,41.24,0,0,0,8.84,1.05c6.62,0,11.71-2,14.33-5.69.06-.08.1-.17.15-.25,2,.12,3.84.19,5.63.19,2.24,0,4.36-.09,6.4-.26l.19.32c2.62,3.67,7.71,5.69,14.33,5.69h0a41.33,41.33,0,0,0,8.85-1.05c16.09-3.58,20.83-5.4,23-13.11l1.47-.54a6.65,6.65,0,0,0,2.69.57,5.88,5.88,0,0,0,3.08-.84,6.38,6.38,0,0,0,2.8-4.94,63.11,63.11,0,0,0,7.7-7.73c8.86-10.36,11.9-23.47,9.72-30.15-1.58-4.86-7.51-12.57-16.71-12.57-.49,0-1,0-1.49.07a135.93,135.93,0,0,0-6.28-26.47c15.45-3.74,33.1-18.11,42.68-25.91,3.29-2.67,6.4-5.21,7.1-5.38a17.74,17.74,0,0,1,3,.21c4,.47,10.08,1.16,11.64-3.53a5,5,0,0,0-.34-4.58,4.78,4.78,0,0,0-2.07-1.6c2.64-1.67,6.59-5,4.79-9C241.59,151.31,236.69,151.37,233.92,151.61ZM235,162.28a.9.9,0,0,0-.51,1,.92.92,0,0,0,.86.74s2.21.1,3.11,1.38a3.3,3.3,0,0,1,.1,3c-1.09,3.29-6.06,2.71-9.69,2.3a17.91,17.91,0,0,0-3.43-.21c-1,.1-2.81,1.5-8.07,5.78-9.67,7.87-27.67,22.53-42.92,25.76a1,1,0,0,0-.62.46,1,1,0,0,0-.05.77,131.48,131.48,0,0,1,6.55,27.06,23.8,23.8,0,0,0-8.28,3.46c-6.7,4.27-11,11.32-13.77,17.9-11.17,1-25.77,2-40,2a278,278,0,0,1-35.61-2.19C79.94,244.92,75.62,238,69,233.75a25.94,25.94,0,0,0-6-2.88,121.5,121.5,0,0,1,5.14-29.56.89.89,0,0,0-.07-.73.88.88,0,0,0-.58-.45C52.32,196.47,34.68,181.18,25.2,173c-5.15-4.46-6.9-5.91-7.92-6.05a17.56,17.56,0,0,0-3.43.12c-3.64.32-8.63.75-9.63-2.57a3.28,3.28,0,0,1,.19-2.94c.93-1.27,3.13-1.31,3.15-1.31A.91.91,0,0,0,8,158.48c-.07,0-7.74-3.87-5.79-7.95.62-1.29,5.34-1.21,8.5-.66a.9.9,0,0,0,.89-.35.93.93,0,0,0,.09-1c-.93-1.83-2.81-7-.41-9,1.81-1.46,5.37,1.95,6.48,3.26a.91.91,0,0,0,1.56-.29c.71-2,2.43-5.54,4-6.27a1.09,1.09,0,0,1,.86-.06c2.07.79,2.65,2.48,3.38,4.61a12.14,12.14,0,0,0,2.93,5.26c.45.43.92.92,1.46,1.48,3.38,3.5,8.9,9.2,23.32,15.08,11.07,15.15,31.62,21.89,64.61,21.89,31.53,0,52.63-5.87,64.35-18.16,17.16-5.86,23.42-12,27.16-15.66.56-.55,1.05-1,1.51-1.44a12.09,12.09,0,0,0,3.07-5.18c.79-2.11,1.42-3.78,3.51-4.51a1.06,1.06,0,0,1,.86.08c1.56.78,3.17,4.33,3.83,6.38a.91.91,0,0,0,1.55.33c1.14-1.28,4.8-4.6,6.58-3.07,2.34,2,.31,7.15-.66,9a.9.9,0,0,0,.05,1,.92.92,0,0,0,.88.38c3.18-.47,7.9-.41,8.48.89C242.84,158.62,235.08,162.24,235,162.28ZM189.22,271.49a63.07,63.07,0,0,1-6.66,6.82,4.19,4.19,0,0,0-2.45-2.22l0,0a6.46,6.46,0,0,0,1.05-6.42,3.94,3.94,0,0,0-2.85-2.36,7,7,0,0,0-.34-5.45,4.35,4.35,0,0,0-3.9-2.34c.68-3-.05-5.77-2-7.21a6.65,6.65,0,0,0-4.06-1.44c-4.22,0-7.79,4.36-8.36,8.28a7.45,7.45,0,0,0,0,2c-.23,0-.48,0-.77.1a19,19,0,0,0-2.11.88c1.75-7.46,6.34-20.5,16.19-26.79a19.75,19.75,0,0,1,10.59-3.5c8.23,0,13.55,6.93,15,11.31C200.57,249.17,197.55,261.75,189.22,271.49Zm-10.06,12.3a4.11,4.11,0,0,1-2.13.57,4.2,4.2,0,0,1-3.49-1.7,21.07,21.07,0,0,0,.09-3.29l.08-.15a3.79,3.79,0,0,1,1.48-1.3c.13,0,.26,0,.4,0a6.46,6.46,0,0,0,2.41-.46c.18,0,.34,0,.53.05,1.47.25,2.31.93,2.52,2A4.57,4.57,0,0,1,179.16,283.79ZM141,298.49c-6,0-10.57-1.75-12.84-4.93-1.67-2.34-2-5.33-.81-8.66,1.92-5.6,6.35-6.8,11-8.07,3.45-.93,7-1.9,9.17-4.83a27.4,27.4,0,0,1,11.74-9c3.7-.48,6.44,1.8,8,3.69a22.86,22.86,0,0,1,4.16,17.44c-1.76,8.21-5.2,9.66-22,13.39A39.49,39.49,0,0,1,141,298.49Zm-41,0a39.57,39.57,0,0,1-8.45-1c-16.79-3.73-20.24-5.18-22-13.39a22.91,22.91,0,0,1,4.17-17.44,9.12,9.12,0,0,1,6.94-3.75c.33,0,.68,0,.86,0A27,27,0,0,1,93.45,272c2.15,2.93,5.72,3.9,9.17,4.83,4.69,1.27,9.13,2.47,11,8.07,1.14,3.33.86,6.32-.82,8.66C110.59,296.74,106,298.49,100,298.49ZM61.9,283.79a4.55,4.55,0,0,1-1.9-4.22c.21-1.1,1.06-1.78,2.52-2,.19,0,.36,0,.54-.05a6.42,6.42,0,0,0,2.41.46c.13,0,.26,0,.4,0a3.86,3.86,0,0,1,1.48,1.3s0,.1.07.15a21.06,21.06,0,0,0,.1,3.29,4.25,4.25,0,0,1-3.5,1.7A4,4,0,0,1,61.9,283.79ZM42.46,243.1c1.42-4.38,6.75-11.31,15-11.31A19.75,19.75,0,0,1,68,235.29c9.88,6.3,14.46,19.4,16.22,26.81a17.6,17.6,0,0,0-2.3-.94c-.21,0-.41,0-.61,0a6.85,6.85,0,0,0,0-2c-.57-3.92-4.14-8.28-8.35-8.28a6.68,6.68,0,0,0-4.07,1.44c-1.92,1.44-2.65,4.26-2,7.21a4.35,4.35,0,0,0-3.9,2.34,7,7,0,0,0-.34,5.44,4,4,0,0,0-2.86,2.37,6.48,6.48,0,0,0,1,6.42l.06,0a4.21,4.21,0,0,0-2.46,2.22,64,64,0,0,1-6.66-6.82C43.51,261.75,40.48,249.17,42.46,243.1Zm119.08,16.26c.46-3.17,3.36-6.71,6.55-6.71a4.9,4.9,0,0,1,3,1.07c1.47,1.1,1.91,3.61,1.08,6.1a6.33,6.33,0,0,1-4.57,4.4,10.52,10.52,0,0,0-6-3.07A5.43,5.43,0,0,1,161.54,259.36Zm14.76,8a4.93,4.93,0,0,1-4.08,2.08,4.26,4.26,0,0,1-1.15-.16,19.22,19.22,0,0,0-2.17-3.55,8,8,0,0,0,4.59-4.4,3.64,3.64,0,0,1,.56-.05,2.53,2.53,0,0,1,2.36,1.4A5.05,5.05,0,0,1,176.3,267.36Zm3.24,3a4.62,4.62,0,0,1-.72,4.44,4.42,4.42,0,0,1-3.23,1.33,3.9,3.9,0,0,1-2.5-.84,27.17,27.17,0,0,0-.82-3.1,2.84,2.84,0,0,1,.16-.57,2.88,2.88,0,0,1,.22-.38,6.76,6.76,0,0,0,4.73-2.27A2.34,2.34,0,0,1,179.54,270.36ZM70,269.28a4.26,4.26,0,0,1-1.15.16,4.94,4.94,0,0,1-4.08-2.08,5.05,5.05,0,0,1-.1-4.68,2.52,2.52,0,0,1,2.36-1.4,3.62,3.62,0,0,1,.55.05,8.06,8.06,0,0,0,4.59,4.4A19.77,19.77,0,0,0,70,269.28Zm-2,6a3.89,3.89,0,0,1-2.49.84,4.42,4.42,0,0,1-3.23-1.33,4.59,4.59,0,0,1-.72-4.44A2.33,2.33,0,0,1,63.68,269a6.74,6.74,0,0,0,4.72,2.27c.07.13.17.24.23.38a5.32,5.32,0,0,1,.16.57A27.21,27.21,0,0,0,68,275.29Zm5.53-11.07a6.36,6.36,0,0,1-4.57-4.4c-.83-2.49-.39-5,1.08-6.1a4.92,4.92,0,0,1,3-1.07c3.19,0,6.08,3.54,6.54,6.71a5.23,5.23,0,0,1,0,1.8A10.29,10.29,0,0,0,73.49,264.22Zm41.91,20.09c-2.24-6.52-7.59-8-12.31-9.24-3.29-.89-6.4-1.74-8.17-4.15a28.43,28.43,0,0,0-8.63-7.72,64.62,64.62,0,0,0-2.84-9.81,283,283,0,0,0,34.84,2.08c13.89,0,28.15-.94,39.24-1.91a64.69,64.69,0,0,0-2.79,9.64,28.88,28.88,0,0,0-8.61,7.72c-1.77,2.41-4.88,3.26-8.17,4.15-4.72,1.27-10.07,2.72-12.3,9.24a11.64,11.64,0,0,0-.08,8.22,84.75,84.75,0,0,1-10.13.07A11.65,11.65,0,0,0,115.4,284.31ZM46.47,141.23c-8.27-1-18.36-5.29-18.72-20.2-.16-6.48,1.42-11.46,4.69-14.81,3.49-3.59,8.35-4.75,12.38-5A148.33,148.33,0,0,0,46.47,141.23Zm2,.71c-4-19.32-5.83-62.84,15.69-89.24,11.92-14.63,29.38-22,51.91-22a111.4,111.4,0,0,1,29.05,3.51C140,43,130.62,44.86,120.63,46.08a.91.91,0,0,0-.8,1,.92.92,0,0,0,.91.8h.11c10.63-1.3,20.61-3.32,26.08-13.21,12.65,3.72,22.9,10,30.62,18.81,23.84,27.25,17.81,72.22,15.53,89.15-3.72,27.71-26.31,40.07-73.24,40.07C75.7,182.71,54.35,170.52,48.47,141.94Zm146.63-.58c1.18-8.92,3-24,1.78-40.22,4.2.14,9.6,1.19,13.4,5.08,3.27,3.35,4.84,8.33,4.69,14.81C214.58,136.64,203.54,140.61,195.1,141.36Z"></path> <path class="cls-11" d="M121.36,162.85l1,0c9.65-.45,17.4-7,20.07-13.27,1.46-3.43,1.25-6.6-.57-8.68-3.13-3.58-14.22-5.51-23.06-5.51-4.61,0-15.42.58-16.23,6a19.83,19.83,0,0,0,4.7,15.19A17.94,17.94,0,0,0,121.36,162.85Zm-17-21.23c.41-2.69,6.07-4.43,14.43-4.43,9.6,0,19.33,2.2,21.68,4.89,1.84,2.11,1,5.14.27,6.77-2.39,5.59-9.67,11.75-18.47,12.15a16.44,16.44,0,0,1-13.63-5.65A18,18,0,0,1,104.4,141.62Z"></path> <path class="cls-11" d="M91.14,115.62A7.24,7.24,0,1,0,84,108.39,7.18,7.18,0,0,0,91.14,115.62ZM89.2,103.17a2.4,2.4,0,1,1-2.35,2.4A2.38,2.38,0,0,1,89.2,103.17Z"></path> <path class="cls-11" d="M154.29,115.62a7.24,7.24,0,1,0-7.12-7.23A7.18,7.18,0,0,0,154.29,115.62Zm-1.93-12.45a2.4,2.4,0,1,1-2.36,2.4A2.37,2.37,0,0,1,152.36,103.17Z"></path> <path class="cls-11" d="M121.11,241.12a.91.91,0,0,0-.92.91v3.44a.92.92,0,1,0,1.83,0V242A.91.91,0,0,0,121.11,241.12Z"></path> </g> </g> </svg> 