<?xml version="1.0" encoding="UTF-8"?> <svg xmlns="http://www.w3.org/2000/svg" viewBox="0 0 332.95 277.07"> <defs> <style>.cls-1{fill:#efeee8;}.cls-2{fill:#fddfc0;}.cls-3{fill:#c6e2c0;}.cls-4{fill:#f58e7f;}.cls-5{fill:#fff;}.cls-6{fill:#f69e8e;}.cls-7{fill:#fbc6a6;}.cls-8{fill:#a2d6bf;}.cls-9{fill:#f27769;}.cls-10{fill:#fff0dc;}.cls-11{fill:#604c44;}</style> </defs> <title>Ребенок 2</title> <g id="Слой_2" data-name="Слой 2"> <g id="Object"> <ellipse class="cls-1" cx="143.17" cy="242.88" rx="143.17" ry="33.53"></ellipse> <path class="cls-2" d="M217.82,219.28c2.3,6.31,5.1,11.91,8.17,15.63,9.81,11.92,19.19,16.63,23.38,15.64s4.18-6.42,4.18-6.65a.92.92,0,0,1,.89-.92c5.18-.13,10.79-1.28,10.89-2.79.16-2.25-3.32-4.55-4.68-5.24a.91.91,0,0,1,0-1.64c1.27-.62,4.76-2.82,4.1-4.79-.74-2.2-4.37-3.37-5.71-3.64a.91.91,0,0,1,.11-1.8c.47,0,1.92-.32,2.36-1.08a1.89,1.89,0,0,0-.18-1.72c-.26-.53-.76-1-2.63-1-.62,0-1.3.05-2,.1s-1.58.11-2.38.11c-1.73,0-4.22-.25-5.85-2.42-4.82-6.43-8.46-21.95-10.48-32.42C233.68,195.25,227.42,208.42,217.82,219.28Z"></path> <path class="cls-2" d="M236.08,184.53H236a184,184,0,0,1-19.87-1c-3.18,7.41-7.06,18.82-7.06,30.41,0,4,.14,7.66.34,11C222.71,213.72,230.8,197.36,236.08,184.53Z"></path> <path class="cls-2" d="M33.93,230.88c3.43-7.09,7.32-13.27,10.81-16.36a13.35,13.35,0,0,1,9.11-3.29,26.33,26.33,0,0,1,8,1.47,76,76,0,0,1-4.47-19c-5.74-5.13-12-10.15-18.21-10.15a11,11,0,0,0-4.76,1.09c-10.74,5.13-30.76,30.85-32,41.07-.11.91-.1,2.09.56,2.64a18.15,18.15,0,0,0,12,4.38,41.3,41.3,0,0,0,8.76-1.23c1.83-.39,3.55-.76,5.25-.95a12.91,12.91,0,0,1,1.52-.09A15.3,15.3,0,0,1,33.93,230.88Z"></path> <path class="cls-3" d="M64.22,213.52c3.44,1.3,6.86,3,10.07,4.58,4.09,2,8,4,10.9,4.56,3.86.79,6.79-2.91,10.17-7.33,4.44-5.8,9.55-12.46,19-11.47A39.8,39.8,0,0,1,133,212.09c-3.85-10.26-11.53-34.76-10.13-63.78a72.21,72.21,0,0,0-14.73-1.43,74.57,74.57,0,0,0-35.22,8.61c-9.69,5.24-14.79,17.65-14,34A74.15,74.15,0,0,0,64.22,213.52Z"></path> <path class="cls-2" d="M143.79,234.53c-2.93-21.3-22.9-28.14-29.66-28.85-8.42-.89-13.16,5.32-17.32,10.76-3.21,4.2-6.24,8.17-10.52,8.17a7.43,7.43,0,0,1-1.47-.16c-3.17-.66-7.14-2.63-11.34-4.71-6.33-3.13-13.5-6.68-19.63-6.68A11.39,11.39,0,0,0,46,215.89C37,223.78,24.86,254,26.49,264.17c.15.9.48,2,1.27,2.37a19,19,0,0,0,7.63,1.67c5,0,9.18-2.2,13.18-4.33,1.65-.87,3.2-1.7,4.78-2.35,4.19-1.73,9.18-1,17.13.38,5.2.92,11.67,2.07,20.45,2.89,1.61.16,3.31.23,5,.23,14.48,0,33.9-5.47,43-15.93C142.89,244.64,144.5,239.74,143.79,234.53Z"></path> <path class="cls-2" d="M207.22,214c0-11.63,3.8-23.05,7-30.64-25-3.09-40.13-12.24-47.55-28.79-.86.08-1.71.13-2.53.13a20.35,20.35,0,0,1-3.77-.33c-5-.94-9.24-1.86-13-2.67-9.16-2-15.61-3.32-22.66-3.17A162.64,162.64,0,0,0,136,214.79a33.34,33.34,0,0,1,9.58,19.49,18.88,18.88,0,0,1-.21,6.42,74.3,74.3,0,0,0,12.67,1.06h0a88,88,0,0,0,16-1.53c-.26-2.25-.58-4.68-.9-7.15-.92-7-1.87-14.19-1.87-20,0-11.21,3.73-34.55,3.76-34.79a.92.92,0,0,1,1.81.29c0,.23-3.74,23.43-3.74,34.5,0,5.65.94,12.8,1.85,19.72.87,6.61,1.69,12.85,1.48,16.64-.17,3.18-1.76,6.75-3.29,10.21-2.39,5.39-3.68,8.74-1.41,9.78,4.11,1.91,8-5,8.68-6.41l.15-.28a.91.91,0,0,1,1.63.82l-.1.2c-.44.95-2.35,5.69,2.27,8.66a2.43,2.43,0,0,0,2.35.35c2.69-1.11,4.54-7.15,5-9.38a.92.92,0,0,1,1-.71.91.91,0,0,1,.76,1c-.2,2.17-.25,8.29,2,10.61a3,3,0,0,0,2.47.92c5.81-.37,6.63-8,6.66-8.36a.92.92,0,0,1,1.39-.69c3.39,2.08,7.89,2.74,10.93,1.6a4.86,4.86,0,0,0,3.16-3.18c.68-2.21-2.39-4.39-5.35-6.49-3.23-2.29-6.27-4.45-5.51-7.26.55-2,.11-5.94-.49-11.41A223.82,223.82,0,0,1,207.22,214Z"></path> <path class="cls-2" d="M148.58,106.21c-3.27,3.36-4.85,8.34-4.69,14.81.37,14.92,10.45,19.2,18.72,20.2a148.23,148.23,0,0,1-1.65-40C156.93,101.46,152.08,102.63,148.58,106.21Z"></path> <path class="cls-2" d="M326.42,106.21c-3.8-3.89-9.19-4.93-13.4-5.07,1.23,16.24-.59,31.3-1.78,40.22,8.45-.75,19.49-4.73,19.87-20.34C331.27,114.55,329.69,109.57,326.42,106.21Z"></path> <path class="cls-2" d="M293.7,53.49c-7.72-8.83-18-15.1-30.62-18.81C257.6,44.57,247.62,46.59,237,47.89h-.11a.91.91,0,0,1-.11-1.82c10-1.22,19.37-3.09,24.49-11.91a111.79,111.79,0,0,0-29-3.5c-22.52,0-40,7.41-51.91,22-21.51,26.4-19.67,69.92-15.69,89.24,5.89,28.58,27.23,40.78,71.37,40.78,46.94,0,69.53-12.36,73.25-40.08C311.5,125.71,317.53,80.74,293.7,53.49Zm-86.42,47.66a7.24,7.24,0,1,1-7.12,7.23A7.18,7.18,0,0,1,207.28,101.15Zm51.32,48.41c-2.66,6.25-10.41,12.82-20.06,13.26l-1,0a18,18,0,0,1-14.06-6.31,19.88,19.88,0,0,1-4.7-15.2c.82-5.4,11.62-6,16.23-6,8.84,0,19.93,1.93,23.07,5.52C259.86,143,260.07,146.13,258.6,149.56Zm11.84-33.94a7.24,7.24,0,1,1,7.12-7.24A7.18,7.18,0,0,1,270.44,115.62Z"></path> <path class="cls-4" d="M235,137.19c-8.35,0-14,1.74-14.42,4.43a17.92,17.92,0,0,0,4.28,13.72A16.35,16.35,0,0,0,238.45,161c8.81-.41,16.09-6.57,18.47-12.16.69-1.62,1.58-4.66-.26-6.76C254.3,139.38,244.57,137.19,235,137.19Z"></path> <path class="cls-5" d="M205.35,108a2.4,2.4,0,1,0-2.36-2.4A2.37,2.37,0,0,0,205.35,108Z"></path> <path class="cls-5" d="M268.5,103.17a2.4,2.4,0,1,0,2.36,2.39A2.37,2.37,0,0,0,268.5,103.17Z"></path> <circle class="cls-6" cx="201.84" cy="135.43" r="10.1"></circle> <circle class="cls-6" cx="276.8" cy="135.43" r="10.1"></circle> <path class="cls-7" d="M286.08,174.44a80.85,80.85,0,0,1-104.67-47.36c-10.83-29.34-2.26-65.15,21.52-85.45A105.85,105.85,0,0,1,216.51,32c-15.08,2.75-27.22,9.67-36.21,20.69-21.51,26.4-19.67,69.92-15.69,89.24,5.89,28.58,27.23,40.78,71.37,40.78C257.73,182.71,274.24,180.05,286.08,174.44Z"></path> <path class="cls-7" d="M160.67,125.64c-4.11-.86-8.28-1.92-11.53-4.53a18.05,18.05,0,0,1-4.78-6.23,29,29,0,0,0-.47,6.14c.37,14.92,10.45,19.2,18.72,20.2A128.37,128.37,0,0,1,160.67,125.64Z"></path> <path class="cls-7" d="M331.11,121a27.33,27.33,0,0,0-.76-7.44A57.84,57.84,0,0,1,312.25,133c-.33,3.14-.69,6-1,8.32C319.69,140.61,330.73,136.63,331.11,121Z"></path> <path class="cls-7" d="M139,249.1c3.88-4.46,5.49-9.36,4.78-14.57a31.68,31.68,0,0,0-8.66-18.05A54.38,54.38,0,0,1,131,227.8c-4.51,8.85-11.94,16.39-21.21,20-13.39,5.17-28.48,1.62-42-3.13-4.15-1.46-8.56-3-12.84-2-6.4,1.49-11.7,8.53-18,6.7-3.13-.91-5.12-3.92-5.72-7.2-3.31,8.85-5.38,17.5-4.65,22.08.15.9.48,2,1.27,2.37a19,19,0,0,0,7.63,1.67c5,0,9.18-2.2,13.18-4.33,1.65-.87,3.2-1.7,4.78-2.35,4.19-1.73,9.18-1,17.13.38,5.2.92,11.67,2.07,20.45,2.89,1.61.16,3.31.23,5,.23C110.46,265,129.88,259.56,139,249.1Z"></path> <path class="cls-7" d="M51.88,207.91c-6.56-.93-13.79-3.74-19.36-.15-2.78,1.79-4.44,4.82-6.55,7.37s-5.28,4.78-8.49,4c-4.76-1.17-5.54-7.37-5.2-12.37C7,214,3,221.32,2.48,225.72c-.11.91-.1,2.09.56,2.64a18.15,18.15,0,0,0,12,4.38,41.3,41.3,0,0,0,8.76-1.23c1.83-.39,3.55-.76,5.25-.95a12.91,12.91,0,0,1,1.52-.09,15.3,15.3,0,0,1,3.38.41c3.43-7.09,7.32-13.27,10.81-16.36a13.35,13.35,0,0,1,9.11-3.29,26.33,26.33,0,0,1,8,1.47q-.87-2.28-1.6-4.73A32,32,0,0,1,51.88,207.91Z"></path> <path class="cls-7" d="M209.56,194.16a7,7,0,0,1,.64.54,100.29,100.29,0,0,1,4-11.38c-17-2.1-29.43-7-38-15.13-4.2,2.38-8.09,5.56-11.95,8.48-10.39,7.84-22.46,14.38-35.08,16.84A149.87,149.87,0,0,0,136,214.79a33.34,33.34,0,0,1,9.58,19.49,18.88,18.88,0,0,1-.21,6.42,74.3,74.3,0,0,0,12.67,1.06h0a88,88,0,0,0,16-1.53c-.26-2.25-.58-4.68-.9-7.15-.92-7-1.87-14.19-1.87-20,0-11.21,3.73-34.55,3.76-34.79a.92.92,0,0,1,1.81.29c0,.23-3.74,23.43-3.74,34.5,0,5.65.94,12.8,1.85,19.72.87,6.61,1.69,12.85,1.48,16.64-.17,3.18-1.76,6.75-3.29,10.21-2.39,5.39-3.68,8.74-1.41,9.78,4.11,1.91,8-5,8.68-6.41l.15-.28a.91.91,0,0,1,1.63.82l-.1.2c-.44.95-2.35,5.69,2.27,8.66a3.24,3.24,0,0,0,1,.43,27.3,27.3,0,0,1-1.89-8,5.25,5.25,0,0,1,.45-2.72,7.68,7.68,0,0,1,2.4-2.27c8.06-6.1,9.14-17.76,8.08-27.82s-3.5-20.54,0-30a15.08,15.08,0,0,1,5.78-7.77C203.05,192.52,206.9,192.23,209.56,194.16Z"></path> <path class="cls-7" d="M265.33,240.19a2.58,2.58,0,0,0,0-.39,39.82,39.82,0,0,1-41-28.84,87.55,87.55,0,0,1-6.46,8.32c2.3,6.31,5.1,11.91,8.17,15.63,9.81,11.92,19.19,16.63,23.38,15.64s4.18-6.42,4.18-6.65a.92.92,0,0,1,.89-.92C259.62,242.85,265.23,241.7,265.33,240.19Z"></path> <path class="cls-8" d="M66.18,186.77a36.84,36.84,0,0,1-7.2-4.45,63.64,63.64,0,0,0-.06,7.2,74.15,74.15,0,0,0,5.3,24c3.44,1.3,6.86,3,10.07,4.58,4.09,2,8,4,10.9,4.56,3.86.79,6.79-2.91,10.17-7.33,4.44-5.8,9.55-12.46,19-11.47A39.8,39.8,0,0,1,133,212.09a162.44,162.44,0,0,1-5.79-19.24A93.29,93.29,0,0,1,66.18,186.77Z"></path> <path class="cls-9" d="M235,137.19c-8.35,0-14,1.74-14.42,4.43a16.11,16.11,0,0,0,.64,7.1,33.65,33.65,0,0,1,33.12,1.4c.47.3.94.62,1.41.95a14.3,14.3,0,0,0,1.2-2.23c.69-1.62,1.58-4.66-.26-6.76C254.3,139.38,244.57,137.19,235,137.19Z"></path> <path class="cls-10" d="M289.41,54.89c-4.22-4.75-10.15-10.62-16.49-12.19a.7.7,0,0,0-.68,1.17c4,4.55,9.45,7.74,13.68,12.14a67.16,67.16,0,0,1,7,8.83c1.47,2.15,2.26,4.18,4.45,5.61a.8.8,0,0,0,1.2-.69C298.6,64.4,292.81,58.73,289.41,54.89Z"></path> <path class="cls-10" d="M318,105.47a1,1,0,0,0,0,1.9,34.92,34.92,0,0,1,3.83,1.37c1.16.63,2,1.63,3.24,2.2a.9.9,0,0,0,1.3-1C325.91,106.73,320.88,104.41,318,105.47Z"></path> <path class="cls-10" d="M62.16,220.36c-1.1-3.3-5-4-8.15-3.56-2.4.3-7.4,2.4-6.52,5.57a1,1,0,0,0,1,.73l.27,0a.94.94,0,0,0,.92-.71l.06-.24a.8.8,0,0,0-.12-.62c.77-1.48,4.63-2.21,5.7-2.25,2.19-.1,4.14,1.14,6.15,1.8A.6.6,0,0,0,62.16,220.36Z"></path> <path class="cls-10" d="M152.93,157.84c-2.23-1.76-4.92-2.11-7.65-2.72-3-.67-6.11-1.46-9.23-1.29a.68.68,0,0,0-.34,1.25A33.69,33.69,0,0,0,144.5,158c2.72.66,5.36,1.57,8.14,1A.65.65,0,0,0,152.93,157.84Z"></path> <path class="cls-10" d="M205.31,233a1.08,1.08,0,0,0-2.07,0,43.05,43.05,0,0,0,.21,13.31.86.86,0,0,0,1.65,0A43.05,43.05,0,0,0,205.31,233Z"></path> <path class="cls-10" d="M250,222.69c-.53-1.88-2.48-3.32-3.69-4.81-1.62-2-2.68-4.3-4.23-6.31a.73.73,0,0,0-1.33.56c.42,2.43,1.9,4.62,3.3,6.59,1.22,1.73,3,4.33,5.27,4.66A.56.56,0,0,0,250,222.69Z"></path> <path class="cls-11" d="M312.87,99.31c-1.47-16.36-6.15-33.71-17.8-47-7.89-9-18.32-15.44-31.15-19.26a25,25,0,0,0-3.67-26.14c-4.06-4.71-9.66-7.25-15-6.84s-10.43,4.81-12.05,10.41a10.66,10.66,0,0,0,3.92,12.06,9,9,0,0,0,9.39,1A7.23,7.23,0,0,0,250,14.73a.91.91,0,1,0-1.68.7,5.44,5.44,0,0,1-2.6,6.5,7.21,7.21,0,0,1-7.45-.88A8.92,8.92,0,0,1,235,11c1.42-4.9,5.81-8.73,10.43-9.1s9.77,2,13.45,6.21a23.45,23.45,0,0,1,3.28,24.44,113,113,0,0,0-29.93-3.68c-23.1,0-41,7.64-53.32,22.71C168,64.92,163,82.56,161.15,99.34c-4.44.26-9.9,1.52-13.88,5.6-3.63,3.72-5.38,9.14-5.21,16.13.42,16.9,12.67,21.12,20.94,22a59.4,59.4,0,0,0,2.93,9.67c-.61,0-1.2.07-1.78.07a18.4,18.4,0,0,1-3.43-.3c-4.94-.95-9.21-1.86-13-2.67-9.58-2.05-16.26-3.46-23.81-3.2a70.79,70.79,0,0,0-15.79-1.61,76.41,76.41,0,0,0-36.09,8.82c-10.34,5.59-15.79,18.61-14.95,35.73,0,.49.07,1,.1,1.47-5.6-4.89-11.7-9.35-18-9.35A12.8,12.8,0,0,0,33.66,183C22.31,188.43,2,214.65.66,225.51c-.23,2,.18,3.41,1.23,4.26A20.11,20.11,0,0,0,15,234.57a43.51,43.51,0,0,0,9.15-1.27c1.78-.38,3.46-.74,5.06-.92a12.46,12.46,0,0,1,3.89.21c-5.44,11.71-9.48,25.39-8.43,31.87.31,2,1.11,3.23,2.35,3.76A20.75,20.75,0,0,0,35.39,270c5.51,0,10-2.42,14-4.54a50.4,50.4,0,0,1,4.62-2.28,13.22,13.22,0,0,1,5.2-.94,67.22,67.22,0,0,1,10.91,1.43c5.23.92,11.75,2.08,20.6,2.92,1.66.15,3.42.23,5.22.23,14.89,0,34.92-5.69,44.41-16.56a22.13,22.13,0,0,0,4.53-7.82,75.45,75.45,0,0,0,13.14,1.11h0a90.19,90.19,0,0,0,16.23-1.54,51.32,51.32,0,0,1,.37,7.33c-.16,2.85-1.68,6.26-3.14,9.57-2.36,5.3-4.58,10.31-.51,12.19,3.47,1.59,6.51-.84,8.55-3.35a7.87,7.87,0,0,0,3.86,6.21,4.23,4.23,0,0,0,4,.5c1.95-.8,3.39-3.1,4.39-5.36.27,2.35.93,4.9,2.42,6.45a4.74,4.74,0,0,0,3.52,1.48h.38c5.16-.32,7.46-5.22,8.16-8.65,3.69,1.86,8.11,2.31,11.35,1.09a6.71,6.71,0,0,0,4.26-4.35c1.07-3.47-2.71-6.16-6-8.52-2.57-1.83-5.22-3.71-4.79-5.28.63-2.34.21-6.22-.44-12.1-.37-3.34-.8-7.37-1.13-12a69.67,69.67,0,0,0,6.92-6.47c2.31,6.17,5.09,11.61,8.11,15.28,8.22,10,17.48,16.44,23.6,16.44a7,7,0,0,0,1.62-.18c4.42-1.05,5.35-5.6,5.54-7.55,3.56-.15,11.57-.89,11.82-4.46.2-2.77-2.51-5-4.27-6.17,1.8-1.17,4.55-3.46,3.62-6.21-.67-2-2.67-3.26-4.37-4a3.37,3.37,0,0,0,1-1,3.53,3.53,0,0,0-.11-3.43c-.89-1.84-2.75-2.07-4.28-2.07-.66,0-1.38.05-2.12.1s-1.5.11-2.25.11c-2.19,0-3.5-.51-4.39-1.69-4.44-5.92-8.05-20.89-10.11-31.44,44.64-.71,67.29-13.89,71.14-41.3,8.24-.68,21.51-4.53,21.95-22.13.17-7-1.58-12.42-5.21-16.13C323.45,100.55,317.45,99.43,312.87,99.31ZM236,182.71c-44.14,0-65.48-12.2-71.37-40.78-4-19.32-5.82-62.84,15.69-89.24,11.92-14.62,29.39-22,51.91-22a111.79,111.79,0,0,1,29,3.5c-5.12,8.82-14.5,10.69-24.49,11.91a.91.91,0,0,0,.11,1.82H237c10.63-1.3,20.61-3.32,26.09-13.21,12.64,3.71,22.9,10,30.62,18.81,23.83,27.25,17.8,72.22,15.53,89.14C305.51,170.35,282.92,182.71,236,182.71Zm18.37,36.75c.8,0,1.6-.06,2.38-.11s1.37-.1,2-.1c1.87,0,2.37.5,2.63,1a1.89,1.89,0,0,1,.18,1.72c-.44.76-1.89,1-2.36,1.08a.91.91,0,0,0-.11,1.8c1.34.27,5,1.44,5.71,3.64.66,2-2.83,4.17-4.1,4.79a.91.91,0,0,0,0,1.64c1.36.69,4.84,3,4.68,5.24-.1,1.51-5.71,2.66-10.89,2.79a.92.92,0,0,0-.89.92c0,.23-.05,5.67-4.18,6.65S235.8,246.83,226,234.91c-3.07-3.72-5.87-9.32-8.17-15.63,9.6-10.86,15.86-24,20.2-34.66,2,10.47,5.66,26,10.48,32.42C250.13,219.21,252.62,219.46,254.35,219.46Zm-45,31.4c-.76,2.81,2.28,5,5.51,7.26,3,2.1,6,4.28,5.35,6.49a4.86,4.86,0,0,1-3.16,3.18c-3,1.14-7.54.48-10.93-1.6a.92.92,0,0,0-1.39.69c0,.33-.85,8-6.66,8.36a3,3,0,0,1-2.47-.92c-2.24-2.32-2.19-8.44-2-10.61a.91.91,0,0,0-.76-1,.92.92,0,0,0-1,.71c-.49,2.23-2.34,8.27-5,9.38a2.43,2.43,0,0,1-2.35-.35c-4.62-3-2.71-7.71-2.27-8.66l.1-.2a.91.91,0,0,0-1.63-.82l-.15.28c-.73,1.43-4.57,8.32-8.68,6.41-2.27-1-1-4.39,1.41-9.78,1.53-3.46,3.12-7,3.29-10.21.21-3.79-.61-10-1.48-16.64-.91-6.92-1.85-14.07-1.85-19.72,0-11.07,3.7-34.27,3.74-34.5a.92.92,0,0,0-1.81-.29c0,.24-3.76,23.58-3.76,34.79,0,5.77.95,13,1.87,20,.32,2.47.64,4.9.9,7.15a88,88,0,0,1-16,1.53h0a74.3,74.3,0,0,1-12.67-1.06,18.88,18.88,0,0,0,.21-6.42A33.34,33.34,0,0,0,136,214.79a162.64,162.64,0,0,1-11.32-66.3c7-.15,13.5,1.21,22.66,3.17,3.78.81,8.06,1.73,13,2.67a20.35,20.35,0,0,0,3.77.33c.82,0,1.67,0,2.53-.13,7.42,16.55,22.51,25.7,47.55,28.79-3.21,7.59-7,19-7,30.64a223.82,223.82,0,0,0,1.63,25.49C209.45,244.92,209.89,248.87,209.34,250.86ZM96,265c-1.74,0-3.44-.07-5-.23-8.78-.82-15.25-2-20.45-2.89-8-1.41-12.94-2.11-17.13-.38-1.58.65-3.13,1.48-4.78,2.35-4,2.13-8.13,4.33-13.18,4.33a19,19,0,0,1-7.63-1.67c-.79-.33-1.12-1.47-1.27-2.37C24.86,254,37,223.78,46,215.89a11.39,11.39,0,0,1,7.89-2.83c6.13,0,13.3,3.55,19.63,6.68,4.2,2.08,8.17,4,11.34,4.71a7.43,7.43,0,0,0,1.47.16c4.28,0,7.31-4,10.52-8.17,4.16-5.44,8.9-11.65,17.32-10.76,6.76.71,26.73,7.55,29.66,28.85.71,5.21-.9,10.11-4.78,14.57C129.88,259.56,110.46,265,96,265Zm-72.2-33.52A41.3,41.3,0,0,1,15,232.74a18.15,18.15,0,0,1-12-4.38c-.66-.55-.67-1.73-.56-2.64,1.21-10.22,21.23-35.94,32-41.07a11,11,0,0,1,4.76-1.09c6.18,0,12.47,5,18.21,10.15a76,76,0,0,0,4.47,19,26.33,26.33,0,0,0-8-1.47,13.35,13.35,0,0,0-9.11,3.29c-3.49,3.09-7.38,9.27-10.81,16.36a15.3,15.3,0,0,0-3.38-.41,12.91,12.91,0,0,0-1.52.09C27.33,230.75,25.61,231.12,23.78,231.51Zm35.14-42c-.79-16.38,4.31-28.79,14-34a74.57,74.57,0,0,1,35.22-8.61,72.21,72.21,0,0,1,14.73,1.43c-1.4,29,6.28,53.52,10.13,63.78a39.8,39.8,0,0,0-18.68-8.23c-9.41-1-14.52,5.67-19,11.47-3.38,4.42-6.31,8.12-10.17,7.33-2.94-.61-6.81-2.53-10.9-4.56-3.21-1.59-6.63-3.28-10.07-4.58A74.15,74.15,0,0,1,58.92,189.52ZM209.05,214c0-11.59,3.88-23,7.06-30.41a184,184,0,0,0,19.87,1h.1c-5.28,12.83-13.37,29.19-26.69,40.48C209.19,221.62,209.05,217.93,209.05,214Zm-46.44-72.74c-8.27-1-18.35-5.28-18.72-20.2-.16-6.47,1.42-11.45,4.69-14.81,3.5-3.58,8.35-4.75,12.38-5A148.23,148.23,0,0,0,162.61,141.22Zm148.63.14c1.19-8.92,3-24,1.78-40.22,4.21.14,9.6,1.18,13.4,5.07,3.27,3.36,4.85,8.34,4.69,14.81C330.73,136.63,319.69,140.61,311.24,141.36Z"></path> <path class="cls-11" d="M235,135.36c-4.61,0-15.41.58-16.23,6a19.88,19.88,0,0,0,4.7,15.2,18,18,0,0,0,14.06,6.31l1,0c9.65-.44,17.4-7,20.06-13.26,1.47-3.43,1.26-6.6-.56-8.68C254.9,137.29,243.81,135.36,235,135.36Zm22,13.48c-2.38,5.59-9.66,11.75-18.47,12.16a16.35,16.35,0,0,1-13.62-5.66,17.92,17.92,0,0,1-4.28-13.72c.4-2.69,6.07-4.43,14.42-4.43,9.6,0,19.33,2.19,21.69,4.89C258.5,144.18,257.61,147.22,256.92,148.84Z"></path> <path class="cls-11" d="M207.28,115.62a7.24,7.24,0,1,0-7.12-7.24A7.18,7.18,0,0,0,207.28,115.62Zm-1.93-12.45a2.4,2.4,0,1,1-2.36,2.39A2.37,2.37,0,0,1,205.35,103.17Z"></path> <path class="cls-11" d="M270.44,101.15a7.24,7.24,0,1,0,7.12,7.23A7.18,7.18,0,0,0,270.44,101.15ZM268.5,108a2.4,2.4,0,1,1,2.36-2.4A2.37,2.37,0,0,1,268.5,108Z"></path> </g> </g> </svg> 