<svg width="14" height="14" viewBox="0 0 14 14" fill="none" xmlns="http://www.w3.org/2000/svg">
<g clip-path="url(#clip0_1222_15249)">
<path d="M6.97773 13.4596C6.45933 13.7934 5.8423 13.9397 5.22921 13.8742C4.61613 13.8087 4.04393 13.5353 3.60773 13.0996L3.22773 12.7196C3.05919 12.5492 2.96465 12.3192 2.96465 12.0796C2.96465 11.8399 3.05919 11.6099 3.22773 11.4396L4.82773 9.84956C4.9964 9.68163 5.22472 9.58735 5.46273 9.58735C5.70075 9.58735 5.92907 9.68163 6.09773 9.84956C6.2681 10.0181 6.49808 10.1126 6.73773 10.1126C6.97739 10.1126 7.20736 10.0181 7.37773 9.84956L9.92773 7.29956C10.0963 7.12919 10.1908 6.89921 10.1908 6.65956C10.1908 6.41991 10.0963 6.18993 9.92773 6.01956C9.7598 5.85089 9.66552 5.62257 9.66552 5.38456C9.66552 5.14655 9.7598 4.91823 9.92773 4.74956L11.4677 3.14956C11.6381 2.98101 11.8681 2.88647 12.1077 2.88647C12.3474 2.88647 12.5774 2.98101 12.7477 3.14956L13.1277 3.52956C13.5713 3.9596 13.854 4.52876 13.9286 5.14206C14.0032 5.75536 13.8653 6.3757 13.5377 6.89956C11.794 9.48834 9.5665 11.7158 6.97773 13.4596Z" fill="#DDB3FF"/>
<path fill-rule="evenodd" clip-rule="evenodd" d="M7.30164 0.110474C7.71585 0.110474 8.05164 0.44626 8.05164 0.860474C8.05164 1.27469 7.71585 1.61047 7.30164 1.61047C6.54654 1.61047 5.79883 1.7592 5.10121 2.04817C4.40358 2.33713 3.76971 2.76067 3.23577 3.29461C2.70183 3.82855 2.27829 4.46242 1.98933 5.16004C1.70036 5.85767 1.55164 6.60537 1.55164 7.36047C1.55164 7.77469 1.21585 8.11047 0.801636 8.11047C0.387422 8.11047 0.0516357 7.77469 0.0516357 7.36047C0.0516357 6.40839 0.239162 5.46563 0.603509 4.58602C0.967856 3.70641 1.50189 2.90717 2.17511 2.23395C2.84834 1.56072 3.64757 1.02669 4.52718 0.662347C5.40679 0.298 6.34955 0.110474 7.30164 0.110474ZM7.6156 3.00296C8.02981 3.00296 8.3656 3.33875 8.3656 3.75296C8.3656 4.16717 8.02981 4.50296 7.6156 4.50296C6.75365 4.50296 5.927 4.84537 5.3175 5.45486C4.70801 6.06436 4.3656 6.89101 4.3656 7.75296C4.3656 8.16717 4.02981 8.50296 3.6156 8.50296C3.20139 8.50296 2.8656 8.16717 2.8656 7.75296C2.8656 6.49318 3.36605 5.285 4.25684 4.3942C5.14764 3.5034 6.35582 3.00296 7.6156 3.00296Z" fill="#BB6DF9"/>
</g>
<defs>
<clipPath id="clip0_1222_15249">
<rect width="14" height="14" fill="white"/>
</clipPath>
</defs>
</svg>
