<svg width="14" height="14" viewBox="0 0 14 14" fill="none" xmlns="http://www.w3.org/2000/svg">
<path fill-rule="evenodd" clip-rule="evenodd" d="M1.99778 9.50671C1.79776 9.50671 1.61699 9.62591 1.5382 9.80975L0.0404292 13.3046C-0.0257774 13.4591 -0.00994068 13.6365 0.0825811 13.7768C0.175103 13.9171 0.33193 14.0015 0.500001 14.0015H13.4807C13.6488 14.0015 13.8056 13.9171 13.8981 13.7768C13.9907 13.6365 14.0065 13.4591 13.9403 13.3046L12.4425 9.80975C12.3637 9.62591 12.183 9.50671 11.9829 9.50671H11.0616H2.91911H1.99778Z" fill="#BB6DF9"/>
<path fill-rule="evenodd" clip-rule="evenodd" d="M6.99029 0C4.36876 0 2.1842 2.18456 2.1842 4.80609C2.1842 5.66168 2.47826 6.50547 2.88931 7.26997C3.30196 8.03744 3.84814 8.75403 4.39075 9.3641C4.93442 9.97537 5.48376 10.4901 5.91175 10.8537C6.12553 11.0353 6.31266 11.1822 6.45692 11.2863C6.52817 11.3377 6.59491 11.383 6.65253 11.4175C6.68058 11.4344 6.71474 11.4537 6.75108 11.4705C6.76917 11.4789 6.79519 11.4901 6.82624 11.5C6.85066 11.5078 6.9117 11.526 6.99029 11.526C7.06956 11.526 7.13108 11.5074 7.15558 11.4996C7.18679 11.4895 7.21291 11.4782 7.23104 11.4697C7.26744 11.4527 7.30164 11.4332 7.32967 11.4162C7.38727 11.3814 7.45399 11.3357 7.52519 11.284C7.66937 11.1791 7.8564 11.0311 8.07007 10.8484C8.49786 10.4826 9.04694 9.96521 9.59035 9.3523C10.1327 8.74062 10.6786 8.02339 11.0911 7.25771C11.5018 6.49531 11.7964 5.65497 11.7964 4.80609C11.7964 2.18456 9.61181 0 6.99029 0Z" fill="#DDB3FF"/>
<path d="M6.99035 6.24146C7.78308 6.24146 8.42571 5.59883 8.42571 4.8061C8.42571 4.01337 7.78308 3.37073 6.99035 3.37073C6.19762 3.37073 5.55499 4.01337 5.55499 4.8061C5.55499 5.59883 6.19762 6.24146 6.99035 6.24146Z" fill="#BB6DF9"/>
</svg>
