<svg width="14" height="14" viewBox="0 0 14 14" fill="none" xmlns="http://www.w3.org/2000/svg">
<path fill-rule="evenodd" clip-rule="evenodd" d="M1.71875 0C1.32093 0 0.939394 0.158035 0.65809 0.43934C0.376785 0.720644 0.21875 1.10218 0.21875 1.5V12.5C0.21875 12.8978 0.376785 13.2794 0.65809 13.5607C0.939394 13.842 1.32092 14 1.71875 14H10.7188C11.1166 14 11.4981 13.842 11.7794 13.5607C12.0607 13.2794 12.2188 12.8978 12.2188 12.5V4.91421C12.2188 4.51639 12.0607 4.13486 11.7794 3.85355L8.3652 0.43934C8.08389 0.158035 7.70236 0 7.30454 0H1.71875Z" fill="#DDB3FF"/>
<path fill-rule="evenodd" clip-rule="evenodd" d="M6.28003 6.375C6.28003 5.96079 6.61582 5.625 7.03003 5.625H9.53003C9.94424 5.625 10.28 5.96079 10.28 6.375C10.28 6.78921 9.94424 7.125 9.53003 7.125H7.03003C6.61582 7.125 6.28003 6.78921 6.28003 6.375Z" fill="#BB6DF9"/>
<path fill-rule="evenodd" clip-rule="evenodd" d="M6.28003 10.3438C6.28003 9.92954 6.61582 9.59375 7.03003 9.59375H9.53003C9.94424 9.59375 10.28 9.92954 10.28 10.3438C10.28 10.758 9.94424 11.0938 9.53003 11.0938H7.03003C6.61582 11.0938 6.28003 10.758 6.28003 10.3438Z" fill="#BB6DF9"/>
<path fill-rule="evenodd" clip-rule="evenodd" d="M5.33034 8.55968C5.6674 8.80044 5.74547 9.26885 5.50471 9.60591L4.10822 11.561C3.98008 11.7404 3.7795 11.8543 3.55979 11.8725C3.34007 11.8907 3.12349 11.8113 2.96759 11.6554L2.1297 10.8175C1.83681 10.5246 1.83681 10.0497 2.1297 9.75684C2.4226 9.46394 2.89747 9.46394 3.19036 9.75684L3.40222 9.96869L4.28411 8.73405C4.52487 8.39699 4.99328 8.31892 5.33034 8.55968Z" fill="#BB6DF9"/>
<path fill-rule="evenodd" clip-rule="evenodd" d="M5.33034 4.52843C5.6674 4.76919 5.74547 5.2376 5.50471 5.57466L4.10822 7.52974C3.98008 7.70914 3.7795 7.82307 3.55979 7.84125C3.34007 7.85944 3.12349 7.78003 2.96759 7.62414L2.1297 6.78625C1.83681 6.49335 1.83681 6.01848 2.1297 5.72559C2.4226 5.43269 2.89747 5.43269 3.19036 5.72559L3.40222 5.93744L4.28411 4.7028C4.52487 4.36574 4.99328 4.28767 5.33034 4.52843Z" fill="#BB6DF9"/>
</svg>
